<?xml version="1.0" encoding="iso-8859-1"?>
<!-- Uploaded to: SVG Repo, www.svgrepo.com, Generator: SVG Repo Mixer Tools -->
<!DOCTYPE svg PUBLIC "-//W3C//DTD SVG 1.1//EN" "http://www.w3.org/Graphics/SVG/1.1/DTD/svg11.dtd">
<svg fill="#000000" version="1.1" id="Capa_1" xmlns="http://www.w3.org/2000/svg" xmlns:xlink="http://www.w3.org/1999/xlink" 
	 width="800px" height="800px" viewBox="0 0 94 94" xml:space="preserve">
<g>
	<g>
		<path d="M89,0H5C2.238,0,0,2.239,0,5v84c0,2.761,2.238,5,5,5h84c2.762,0,5-2.239,5-5V5C94,2.239,91.762,0,89,0z M19.28,40.991
			c1.263,0,2.287,1.032,2.287,2.306s-1.024,2.306-2.287,2.306c-1.263,0-2.287-1.032-2.287-2.306S18.018,40.991,19.28,40.991z
			 M14.114,41.879c1.15,0,2.084,0.935,2.084,2.085c0,1.151-0.934,2.085-2.084,2.085c-1.152,0-2.086-0.934-2.086-2.085
			C12.028,42.813,12.962,41.879,14.114,41.879z M9.438,42.647c1.028,0,1.863,0.834,1.863,1.863c0,1.03-0.835,1.864-1.863,1.864
			c-1.03,0-1.865-0.834-1.865-1.864C7.573,43.481,8.408,42.647,9.438,42.647z M11.465,49.439c0,0.148-0.099,0.244-0.244,0.244H7.613
			c-0.144,0-0.243-0.097-0.243-0.244v-0.688c0-1.003,0.821-2.109,2.049-2.109c1.119,0,2.047,0.944,2.047,2.109L11.465,49.439
			L11.465,49.439z M16.371,49.443c0,0.146-0.099,0.24-0.243,0.24h-4.005c-0.144,0-0.24-0.095-0.24-0.24v-0.769
			c0-1.333,1.054-2.312,2.229-2.312c1.371,0,2.259,1.168,2.259,2.312V49.443z M21.802,49.441c0,0.147-0.098,0.242-0.242,0.242
			h-4.517c-0.146,0-0.243-0.097-0.243-0.242v-0.918c0-1.587,1.309-2.556,2.509-2.556c1.433,0,2.493,1.198,2.493,2.556V49.441z
			 M35.942,49.688h-1.936v-4.563c0-1.351-0.455-2.213-1.66-2.213c-1.246,0-1.798,0.952-1.798,2.213v4.563H28.61v-4.702
			c0-1.369-0.643-2.075-1.657-2.075c-1.338,0-1.798,1.175-1.798,2.075v4.702H23.22v-8.298h1.937v1.186c0,0,1.077-1.389,2.563-1.389
			c1.766,0,2.488,1.476,2.488,1.476s0.893-1.476,2.777-1.476c2.193,0,2.958,1.511,2.958,3.385L35.942,49.688L35.942,49.688z
			 M38.476,53.007l1.082-3.354l-3.339-8.263h2.101l2.074,5.716l1.738-5.716h2.047L40.43,53.007H38.476z M47.521,49.843
			c-1.937,0-3.389-1.057-3.389-1.057l0.84-1.593c0,0,1.323,1.008,2.597,1.008c0.578,0,1.166-0.146,1.166-0.79
			c0-1.669-4.354-0.67-4.354-3.742c0-1.298,1.24-2.501,3.021-2.501c1.709,0,3.017,0.921,3.017,0.921l-0.87,1.52
			c0,0-1.023-0.808-2.242-0.808c-0.774,0-1.064,0.337-1.064,0.794c0,1.35,4.382,0.847,4.382,3.619
			C50.626,48.883,49.255,49.843,47.521,49.843z M56.255,49.866c-1.767,0-2.748-1.47-2.748-1.47v4.611h-1.935V41.391h1.935v1.306
			c0,0,0.976-1.513,2.802-1.513c2.703,0,3.885,2.39,3.885,4.379C60.191,48.575,58.018,49.866,56.255,49.866z M69.686,49.688h-1.938
			v-1.291c0,0-0.98,1.471-2.749,1.471c-1.763,0-3.937-1.291-3.937-4.304c0-1.989,1.183-4.379,3.883-4.379
			c1.826,0,2.803,1.513,2.803,1.513v-1.306h1.938V49.688z M74.992,49.873c-2.396,0-4.358-1.798-4.358-4.313
			c0-2.102,1.476-4.383,4.366-4.383c2.18,0,3.336,1.467,3.336,1.467l-1.259,1.301c0,0-0.72-1.101-2.112-1.101
			c-1.27,0-2.443,1.187-2.443,2.672c0,1.329,0.895,2.689,2.487,2.689c1.415,0,2.175-1.021,2.175-1.021l1.196,1.18
			C78.38,48.361,77.076,49.873,74.992,49.873z M86.631,46.24h-6.146c0,0.975,1.016,2.096,2.447,2.096c1.233,0,2.018-0.9,2.189-1.062
			l1.167,1.113c-0.708,0.688-1.521,1.479-3.414,1.479c-2.886,0-4.341-2.107-4.341-4.304c0-2.332,1.568-4.388,4.107-4.388
			c2.502,0,3.988,1.929,3.988,4.261v0.805H86.631z"/>
		<path d="M55.812,42.835c-1.446,0-2.396,1.372-2.396,2.692c0,1.442,1.011,2.688,2.445,2.688s2.363-1.229,2.363-2.671
			C58.227,44.11,57.277,42.835,55.812,42.835z"/>
		<path d="M65.443,42.835c-1.465,0-2.414,1.275-2.414,2.709c0,1.442,0.93,2.671,2.363,2.671c1.437,0,2.445-1.245,2.445-2.688
			C67.839,44.207,66.891,42.835,65.443,42.835z"/>
		<path d="M82.623,42.756c-1.434,0-2.146,1.416-2.146,2.231h4.287C84.764,44.129,84.016,42.756,82.623,42.756z"/>
	</g>
</g>
</svg>